<mxfile host="app.diagrams.net" modified="2024-03-30T11:59:46.020Z" agent="Mozilla/5.0 (Windows NT 10.0; Win64; x64) AppleWebKit/537.36 (KHTML, like Gecko) Chrome/123.0.0.0 Safari/537.36" etag="M2KS-YM1dVTdm2mSlPV5" version="24.0.6" type="device">
  <diagram name="Page-1" id="BygURVxZExGxyJ_A_CrP">
    <mxGraphModel dx="2157" dy="1480" grid="1" gridSize="10" guides="1" tooltips="1" connect="1" arrows="1" fold="1" page="1" pageScale="1" pageWidth="850" pageHeight="1100" math="0" shadow="0">
      <root>
        <mxCell id="0" />
        <mxCell id="1" parent="0" />
        <mxCell id="cKcv-P_t8UrdQhBmYc3C-16" value="" style="edgeStyle=orthogonalEdgeStyle;rounded=0;orthogonalLoop=1;jettySize=auto;html=1;entryX=0.5;entryY=0;entryDx=0;entryDy=0;" edge="1" parent="1" target="cKcv-P_t8UrdQhBmYc3C-12">
          <mxGeometry relative="1" as="geometry">
            <mxPoint x="390" y="175" as="sourcePoint" />
            <mxPoint x="285" y="265" as="targetPoint" />
            <Array as="points">
              <mxPoint x="390" y="215" />
              <mxPoint x="285" y="215" />
            </Array>
          </mxGeometry>
        </mxCell>
        <mxCell id="cKcv-P_t8UrdQhBmYc3C-18" style="edgeStyle=orthogonalEdgeStyle;rounded=0;orthogonalLoop=1;jettySize=auto;html=1;exitX=0.5;exitY=1;exitDx=0;exitDy=0;entryX=0.5;entryY=0;entryDx=0;entryDy=0;" edge="1" parent="1" source="cKcv-P_t8UrdQhBmYc3C-1" target="cKcv-P_t8UrdQhBmYc3C-11">
          <mxGeometry relative="1" as="geometry" />
        </mxCell>
        <mxCell id="cKcv-P_t8UrdQhBmYc3C-19" style="edgeStyle=orthogonalEdgeStyle;rounded=0;orthogonalLoop=1;jettySize=auto;html=1;exitX=0.5;exitY=1;exitDx=0;exitDy=0;entryX=0.5;entryY=0;entryDx=0;entryDy=0;" edge="1" parent="1" source="cKcv-P_t8UrdQhBmYc3C-1" target="cKcv-P_t8UrdQhBmYc3C-10">
          <mxGeometry relative="1" as="geometry" />
        </mxCell>
        <mxCell id="cKcv-P_t8UrdQhBmYc3C-21" style="edgeStyle=orthogonalEdgeStyle;rounded=0;orthogonalLoop=1;jettySize=auto;html=1;exitX=0.5;exitY=1;exitDx=0;exitDy=0;entryX=0.5;entryY=0;entryDx=0;entryDy=0;" edge="1" parent="1" source="cKcv-P_t8UrdQhBmYc3C-1" target="cKcv-P_t8UrdQhBmYc3C-13">
          <mxGeometry relative="1" as="geometry" />
        </mxCell>
        <mxCell id="cKcv-P_t8UrdQhBmYc3C-1" value="" style="image;html=1;image=img/lib/clip_art/computers/Database_128x128.png" vertex="1" parent="1">
          <mxGeometry x="347.5" y="50" width="85" height="120" as="geometry" />
        </mxCell>
        <mxCell id="cKcv-P_t8UrdQhBmYc3C-10" value="Get tables" style="rounded=1;whiteSpace=wrap;html=1;" vertex="1" parent="1">
          <mxGeometry x="417" y="260" width="80" height="30" as="geometry" />
        </mxCell>
        <mxCell id="cKcv-P_t8UrdQhBmYc3C-11" value="Execute" style="rounded=1;whiteSpace=wrap;html=1;" vertex="1" parent="1">
          <mxGeometry x="50" y="260" width="80" height="30" as="geometry" />
        </mxCell>
        <mxCell id="cKcv-P_t8UrdQhBmYc3C-12" value="Commit" style="rounded=1;whiteSpace=wrap;html=1;" vertex="1" parent="1">
          <mxGeometry x="245" y="260" width="80" height="30" as="geometry" />
        </mxCell>
        <mxCell id="cKcv-P_t8UrdQhBmYc3C-13" value="Connect" style="rounded=1;whiteSpace=wrap;html=1;" vertex="1" parent="1">
          <mxGeometry x="560" y="260" width="80" height="30" as="geometry" />
        </mxCell>
        <mxCell id="cKcv-P_t8UrdQhBmYc3C-23" value="" style="html=1;labelBackgroundColor=#ffffff;startArrow=none;startFill=0;startSize=6;endArrow=classic;endFill=1;endSize=6;jettySize=auto;orthogonalLoop=1;strokeWidth=1;dashed=1;fontSize=14;rounded=0;exitX=1;exitY=0.5;exitDx=0;exitDy=0;entryX=1.016;entryY=0.35;entryDx=0;entryDy=0;entryPerimeter=0;" edge="1" parent="1" target="cKcv-P_t8UrdQhBmYc3C-94">
          <mxGeometry width="60" height="60" relative="1" as="geometry">
            <mxPoint x="640" y="275" as="sourcePoint" />
            <mxPoint x="622" y="90" as="targetPoint" />
            <Array as="points">
              <mxPoint x="682.5" y="275" />
              <mxPoint x="683" y="90" />
            </Array>
          </mxGeometry>
        </mxCell>
        <mxCell id="cKcv-P_t8UrdQhBmYc3C-25" value="" style="html=1;labelBackgroundColor=#ffffff;startArrow=none;startFill=0;startSize=6;endArrow=classic;endFill=1;endSize=6;jettySize=auto;orthogonalLoop=1;strokeWidth=1;dashed=1;fontSize=14;rounded=0;exitX=0.5;exitY=1;exitDx=0;exitDy=0;entryX=0.5;entryY=0;entryDx=0;entryDy=0;" edge="1" parent="1" source="cKcv-P_t8UrdQhBmYc3C-12" target="cKcv-P_t8UrdQhBmYc3C-29">
          <mxGeometry width="60" height="60" relative="1" as="geometry">
            <mxPoint x="498" y="285" as="sourcePoint" />
            <mxPoint x="308" y="360" as="targetPoint" />
            <Array as="points" />
          </mxGeometry>
        </mxCell>
        <mxCell id="cKcv-P_t8UrdQhBmYc3C-26" value="" style="html=1;labelBackgroundColor=#ffffff;startArrow=none;startFill=0;startSize=6;endArrow=classic;endFill=1;endSize=6;jettySize=auto;orthogonalLoop=1;strokeWidth=1;dashed=1;fontSize=14;rounded=0;exitX=0.5;exitY=1;exitDx=0;exitDy=0;entryX=0.5;entryY=0;entryDx=0;entryDy=0;" edge="1" parent="1" source="cKcv-P_t8UrdQhBmYc3C-11" target="cKcv-P_t8UrdQhBmYc3C-70">
          <mxGeometry width="60" height="60" relative="1" as="geometry">
            <mxPoint x="89.5" y="300" as="sourcePoint" />
            <mxPoint x="89.5" y="360" as="targetPoint" />
            <Array as="points" />
          </mxGeometry>
        </mxCell>
        <mxCell id="cKcv-P_t8UrdQhBmYc3C-29" value="Report" style="ellipse;whiteSpace=wrap;html=1;" vertex="1" parent="1">
          <mxGeometry x="250" y="360" width="70" height="30" as="geometry" />
        </mxCell>
        <mxCell id="cKcv-P_t8UrdQhBmYc3C-35" value="Get columns" style="rounded=1;whiteSpace=wrap;html=1;" vertex="1" parent="1">
          <mxGeometry x="-108" y="951" width="80" height="30" as="geometry" />
        </mxCell>
        <mxCell id="cKcv-P_t8UrdQhBmYc3C-55" value="" style="html=1;labelBackgroundColor=#ffffff;startArrow=none;startFill=0;startSize=6;endArrow=classic;endFill=1;endSize=6;jettySize=auto;orthogonalLoop=1;strokeWidth=1;dashed=1;fontSize=14;rounded=0;exitX=0.5;exitY=1;exitDx=0;exitDy=0;entryX=0.5;entryY=0;entryDx=0;entryDy=0;" edge="1" parent="1" source="cKcv-P_t8UrdQhBmYc3C-10" target="cKcv-P_t8UrdQhBmYc3C-155">
          <mxGeometry width="60" height="60" relative="1" as="geometry">
            <mxPoint x="327" y="30" as="sourcePoint" />
            <mxPoint x="457" y="370.0000000000002" as="targetPoint" />
            <Array as="points">
              <mxPoint x="457" y="320" />
            </Array>
          </mxGeometry>
        </mxCell>
        <mxCell id="cKcv-P_t8UrdQhBmYc3C-56" value="" style="image;html=1;image=img/lib/clip_art/computers/Database_128x128.png" vertex="1" parent="1">
          <mxGeometry x="780" y="190" width="50" height="70" as="geometry" />
        </mxCell>
        <mxCell id="cKcv-P_t8UrdQhBmYc3C-69" style="edgeStyle=orthogonalEdgeStyle;rounded=0;orthogonalLoop=1;jettySize=auto;html=1;exitX=0.5;exitY=0;exitDx=0;exitDy=0;entryX=0.5;entryY=1;entryDx=0;entryDy=0;" edge="1" parent="1" source="cKcv-P_t8UrdQhBmYc3C-57" target="cKcv-P_t8UrdQhBmYc3C-56">
          <mxGeometry relative="1" as="geometry" />
        </mxCell>
        <mxCell id="cKcv-P_t8UrdQhBmYc3C-57" value="Table" style="shape=table;startSize=30;container=1;collapsible=0;childLayout=tableLayout;fixedRows=1;rowLines=0;fontStyle=0;strokeColor=default;fontSize=16;" vertex="1" parent="1">
          <mxGeometry x="765" y="380" width="80" height="60" as="geometry" />
        </mxCell>
        <mxCell id="cKcv-P_t8UrdQhBmYc3C-58" value="" style="shape=tableRow;horizontal=0;startSize=0;swimlaneHead=0;swimlaneBody=0;top=0;left=0;bottom=0;right=0;collapsible=0;dropTarget=0;fillColor=none;points=[[0,0.5],[1,0.5]];portConstraint=eastwest;strokeColor=inherit;fontSize=16;" vertex="1" parent="cKcv-P_t8UrdQhBmYc3C-57">
          <mxGeometry y="30" width="80" height="30" as="geometry" />
        </mxCell>
        <mxCell id="cKcv-P_t8UrdQhBmYc3C-59" value="1" style="shape=partialRectangle;html=1;whiteSpace=wrap;connectable=0;fillColor=none;top=0;left=0;bottom=0;right=0;overflow=hidden;pointerEvents=1;strokeColor=inherit;fontSize=16;" vertex="1" parent="cKcv-P_t8UrdQhBmYc3C-58">
          <mxGeometry width="18" height="30" as="geometry">
            <mxRectangle width="18" height="30" as="alternateBounds" />
          </mxGeometry>
        </mxCell>
        <mxCell id="cKcv-P_t8UrdQhBmYc3C-60" value="Value 1" style="shape=partialRectangle;html=1;whiteSpace=wrap;connectable=0;fillColor=none;top=0;left=0;bottom=0;right=0;align=left;spacingLeft=6;overflow=hidden;strokeColor=inherit;fontSize=16;" vertex="1" parent="cKcv-P_t8UrdQhBmYc3C-58">
          <mxGeometry x="18" width="62" height="30" as="geometry">
            <mxRectangle width="62" height="30" as="alternateBounds" />
          </mxGeometry>
        </mxCell>
        <mxCell id="cKcv-P_t8UrdQhBmYc3C-72" value="" style="edgeStyle=orthogonalEdgeStyle;rounded=0;orthogonalLoop=1;jettySize=auto;html=1;exitX=0.5;exitY=1;exitDx=0;exitDy=0;" edge="1" parent="1" source="cKcv-P_t8UrdQhBmYc3C-70" target="cKcv-P_t8UrdQhBmYc3C-71">
          <mxGeometry relative="1" as="geometry">
            <mxPoint x="231.5" y="565" as="sourcePoint" />
            <Array as="points">
              <mxPoint x="90" y="505" />
            </Array>
          </mxGeometry>
        </mxCell>
        <mxCell id="cKcv-P_t8UrdQhBmYc3C-73" value="if SELECT" style="edgeLabel;html=1;align=center;verticalAlign=middle;resizable=0;points=[];" vertex="1" connectable="0" parent="cKcv-P_t8UrdQhBmYc3C-72">
          <mxGeometry x="-0.1692" relative="1" as="geometry">
            <mxPoint x="26" as="offset" />
          </mxGeometry>
        </mxCell>
        <mxCell id="cKcv-P_t8UrdQhBmYc3C-75" style="edgeStyle=orthogonalEdgeStyle;rounded=0;orthogonalLoop=1;jettySize=auto;html=1;exitX=1;exitY=0.5;exitDx=0;exitDy=0;entryX=0;entryY=0.5;entryDx=0;entryDy=0;" edge="1" parent="1" target="cKcv-P_t8UrdQhBmYc3C-74">
          <mxGeometry relative="1" as="geometry">
            <mxPoint x="130" y="450" as="sourcePoint" />
            <mxPoint x="259" y="450" as="targetPoint" />
            <Array as="points" />
          </mxGeometry>
        </mxCell>
        <mxCell id="cKcv-P_t8UrdQhBmYc3C-77" value="if DML" style="edgeLabel;html=1;align=center;verticalAlign=middle;resizable=0;points=[];" vertex="1" connectable="0" parent="cKcv-P_t8UrdQhBmYc3C-75">
          <mxGeometry x="0.2362" y="-4" relative="1" as="geometry">
            <mxPoint x="-11" y="-4" as="offset" />
          </mxGeometry>
        </mxCell>
        <mxCell id="cKcv-P_t8UrdQhBmYc3C-70" value="" style="rhombus;whiteSpace=wrap;html=1;" vertex="1" parent="1">
          <mxGeometry x="50" y="410" width="80" height="80" as="geometry" />
        </mxCell>
        <mxCell id="cKcv-P_t8UrdQhBmYc3C-71" value="Table" style="ellipse;whiteSpace=wrap;html=1;" vertex="1" parent="1">
          <mxGeometry x="199.25" y="490" width="70" height="30" as="geometry" />
        </mxCell>
        <mxCell id="cKcv-P_t8UrdQhBmYc3C-74" value="Report" style="ellipse;whiteSpace=wrap;html=1;" vertex="1" parent="1">
          <mxGeometry x="199.25" y="435" width="70" height="30" as="geometry" />
        </mxCell>
        <mxCell id="cKcv-P_t8UrdQhBmYc3C-80" value="" style="shape=curlyBracket;whiteSpace=wrap;html=1;rounded=1;labelPosition=left;verticalLabelPosition=middle;align=right;verticalAlign=middle;" vertex="1" parent="1">
          <mxGeometry x="311" y="659" width="20" height="120" as="geometry" />
        </mxCell>
        <mxCell id="cKcv-P_t8UrdQhBmYc3C-82" value="&lt;ul&gt;&lt;li&gt;&lt;font style=&quot;font-size: 14px;&quot;&gt;Parent database: Database&lt;/font&gt;&lt;/li&gt;&lt;li&gt;&lt;font style=&quot;font-size: 14px;&quot;&gt;Tablename: string&lt;/font&gt;&lt;/li&gt;&lt;li&gt;&lt;font style=&quot;font-size: 14px;&quot;&gt;Columns: [string]&lt;/font&gt;&lt;/li&gt;&lt;li&gt;&lt;font style=&quot;font-size: 14px;&quot;&gt;Rows: [rows]&lt;/font&gt;&lt;/li&gt;&lt;/ul&gt;" style="text;strokeColor=none;fillColor=none;html=1;whiteSpace=wrap;verticalAlign=middle;overflow=hidden;" vertex="1" parent="1">
          <mxGeometry x="311" y="649" width="225" height="130" as="geometry" />
        </mxCell>
        <mxCell id="cKcv-P_t8UrdQhBmYc3C-83" value="" style="endArrow=classic;html=1;rounded=0;entryX=0.822;entryY=0.077;entryDx=0;entryDy=0;entryPerimeter=0;" edge="1" parent="1" target="cKcv-P_t8UrdQhBmYc3C-82">
          <mxGeometry width="50" height="50" relative="1" as="geometry">
            <mxPoint x="496" y="679" as="sourcePoint" />
            <mxPoint x="546" y="629" as="targetPoint" />
          </mxGeometry>
        </mxCell>
        <mxCell id="cKcv-P_t8UrdQhBmYc3C-96" value="" style="html=1;labelBackgroundColor=#ffffff;startArrow=none;startFill=0;startSize=6;endArrow=classic;endFill=1;endSize=6;jettySize=auto;orthogonalLoop=1;strokeWidth=1;dashed=1;fontSize=14;rounded=0;exitX=0.5;exitY=1;exitDx=0;exitDy=0;entryX=0.5;entryY=0;entryDx=0;entryDy=0;" edge="1" parent="1" source="cKcv-P_t8UrdQhBmYc3C-71" target="cKcv-P_t8UrdQhBmYc3C-40">
          <mxGeometry width="60" height="60" relative="1" as="geometry">
            <mxPoint x="80" y="589" as="sourcePoint" />
            <mxPoint x="80" y="659" as="targetPoint" />
            <Array as="points" />
          </mxGeometry>
        </mxCell>
        <mxCell id="cKcv-P_t8UrdQhBmYc3C-98" value="" style="group" vertex="1" connectable="0" parent="1">
          <mxGeometry x="432.5" y="62.63" width="183.5" height="78.25" as="geometry" />
        </mxCell>
        <mxCell id="cKcv-P_t8UrdQhBmYc3C-84" value="" style="shape=curlyBracket;whiteSpace=wrap;html=1;rounded=1;labelPosition=left;verticalLabelPosition=middle;align=right;verticalAlign=middle;" vertex="1" parent="cKcv-P_t8UrdQhBmYc3C-98">
          <mxGeometry x="9" y="5.369999999999997" width="20" height="67.5" as="geometry" />
        </mxCell>
        <mxCell id="cKcv-P_t8UrdQhBmYc3C-94" value="&lt;ul&gt;&lt;li&gt;Connection: Connection&lt;/li&gt;&lt;li&gt;Tables: [string]&lt;/li&gt;&lt;li&gt;Commit status: boolean&lt;/li&gt;&lt;/ul&gt;" style="text;strokeColor=none;fillColor=none;html=1;whiteSpace=wrap;verticalAlign=middle;overflow=hidden;" vertex="1" parent="cKcv-P_t8UrdQhBmYc3C-98">
          <mxGeometry width="183.5" height="78.25" as="geometry" />
        </mxCell>
        <mxCell id="cKcv-P_t8UrdQhBmYc3C-107" value="Get rows" style="rounded=1;whiteSpace=wrap;html=1;" vertex="1" parent="1">
          <mxGeometry x="42" y="951" width="80" height="30" as="geometry" />
        </mxCell>
        <mxCell id="cKcv-P_t8UrdQhBmYc3C-108" value="Get name" style="rounded=1;whiteSpace=wrap;html=1;" vertex="1" parent="1">
          <mxGeometry x="194.5" y="951" width="80" height="30" as="geometry" />
        </mxCell>
        <mxCell id="cKcv-P_t8UrdQhBmYc3C-109" value="Tabulate" style="rounded=1;whiteSpace=wrap;html=1;" vertex="1" parent="1">
          <mxGeometry x="352" y="951" width="80" height="30" as="geometry" />
        </mxCell>
        <mxCell id="cKcv-P_t8UrdQhBmYc3C-110" value="Print" style="rounded=1;whiteSpace=wrap;html=1;" vertex="1" parent="1">
          <mxGeometry x="512" y="951" width="80" height="30" as="geometry" />
        </mxCell>
        <mxCell id="cKcv-P_t8UrdQhBmYc3C-111" style="edgeStyle=orthogonalEdgeStyle;rounded=0;orthogonalLoop=1;jettySize=auto;html=1;entryX=0.5;entryY=0;entryDx=0;entryDy=0;exitX=0.55;exitY=0.8;exitDx=0;exitDy=0;exitPerimeter=0;" edge="1" parent="1">
          <mxGeometry relative="1" as="geometry">
            <mxPoint x="234" y="789" as="sourcePoint" />
            <mxPoint x="234.5" y="951" as="targetPoint" />
            <Array as="points" />
          </mxGeometry>
        </mxCell>
        <mxCell id="cKcv-P_t8UrdQhBmYc3C-40" value="Table" style="shape=table;startSize=30;container=1;collapsible=0;childLayout=tableLayout;fixedRows=1;rowLines=0;fontStyle=0;strokeColor=default;fontSize=16;" vertex="1" parent="1">
          <mxGeometry x="168.5" y="659" width="130" height="120" as="geometry" />
        </mxCell>
        <mxCell id="cKcv-P_t8UrdQhBmYc3C-41" value="" style="shape=tableRow;horizontal=0;startSize=0;swimlaneHead=0;swimlaneBody=0;top=0;left=0;bottom=0;right=0;collapsible=0;dropTarget=0;fillColor=none;points=[[0,0.5],[1,0.5]];portConstraint=eastwest;strokeColor=inherit;fontSize=16;" vertex="1" parent="cKcv-P_t8UrdQhBmYc3C-40">
          <mxGeometry y="30" width="130" height="30" as="geometry" />
        </mxCell>
        <mxCell id="cKcv-P_t8UrdQhBmYc3C-42" value="1" style="shape=partialRectangle;html=1;whiteSpace=wrap;connectable=0;fillColor=none;top=0;left=0;bottom=0;right=0;overflow=hidden;pointerEvents=1;strokeColor=inherit;fontSize=16;" vertex="1" parent="cKcv-P_t8UrdQhBmYc3C-41">
          <mxGeometry width="29" height="30" as="geometry">
            <mxRectangle width="29" height="30" as="alternateBounds" />
          </mxGeometry>
        </mxCell>
        <mxCell id="cKcv-P_t8UrdQhBmYc3C-43" value="Value 1" style="shape=partialRectangle;html=1;whiteSpace=wrap;connectable=0;fillColor=none;top=0;left=0;bottom=0;right=0;align=left;spacingLeft=6;overflow=hidden;strokeColor=inherit;fontSize=16;" vertex="1" parent="cKcv-P_t8UrdQhBmYc3C-41">
          <mxGeometry x="29" width="101" height="30" as="geometry">
            <mxRectangle width="101" height="30" as="alternateBounds" />
          </mxGeometry>
        </mxCell>
        <mxCell id="cKcv-P_t8UrdQhBmYc3C-44" value="" style="shape=tableRow;horizontal=0;startSize=0;swimlaneHead=0;swimlaneBody=0;top=0;left=0;bottom=0;right=0;collapsible=0;dropTarget=0;fillColor=none;points=[[0,0.5],[1,0.5]];portConstraint=eastwest;strokeColor=inherit;fontSize=16;" vertex="1" parent="cKcv-P_t8UrdQhBmYc3C-40">
          <mxGeometry y="60" width="130" height="30" as="geometry" />
        </mxCell>
        <mxCell id="cKcv-P_t8UrdQhBmYc3C-45" value="2" style="shape=partialRectangle;html=1;whiteSpace=wrap;connectable=0;fillColor=none;top=0;left=0;bottom=0;right=0;overflow=hidden;strokeColor=inherit;fontSize=16;" vertex="1" parent="cKcv-P_t8UrdQhBmYc3C-44">
          <mxGeometry width="29" height="30" as="geometry">
            <mxRectangle width="29" height="30" as="alternateBounds" />
          </mxGeometry>
        </mxCell>
        <mxCell id="cKcv-P_t8UrdQhBmYc3C-46" value="Value 2" style="shape=partialRectangle;html=1;whiteSpace=wrap;connectable=0;fillColor=none;top=0;left=0;bottom=0;right=0;align=left;spacingLeft=6;overflow=hidden;strokeColor=inherit;fontSize=16;" vertex="1" parent="cKcv-P_t8UrdQhBmYc3C-44">
          <mxGeometry x="29" width="101" height="30" as="geometry">
            <mxRectangle width="101" height="30" as="alternateBounds" />
          </mxGeometry>
        </mxCell>
        <mxCell id="cKcv-P_t8UrdQhBmYc3C-47" value="" style="shape=tableRow;horizontal=0;startSize=0;swimlaneHead=0;swimlaneBody=0;top=0;left=0;bottom=0;right=0;collapsible=0;dropTarget=0;fillColor=none;points=[[0,0.5],[1,0.5]];portConstraint=eastwest;strokeColor=inherit;fontSize=16;" vertex="1" parent="cKcv-P_t8UrdQhBmYc3C-40">
          <mxGeometry y="90" width="130" height="30" as="geometry" />
        </mxCell>
        <mxCell id="cKcv-P_t8UrdQhBmYc3C-48" value="3" style="shape=partialRectangle;html=1;whiteSpace=wrap;connectable=0;fillColor=none;top=0;left=0;bottom=0;right=0;overflow=hidden;strokeColor=inherit;fontSize=16;" vertex="1" parent="cKcv-P_t8UrdQhBmYc3C-47">
          <mxGeometry width="29" height="30" as="geometry">
            <mxRectangle width="29" height="30" as="alternateBounds" />
          </mxGeometry>
        </mxCell>
        <mxCell id="cKcv-P_t8UrdQhBmYc3C-49" value="Value 3" style="shape=partialRectangle;html=1;whiteSpace=wrap;connectable=0;fillColor=none;top=0;left=0;bottom=0;right=0;align=left;spacingLeft=6;overflow=hidden;strokeColor=inherit;fontSize=16;" vertex="1" parent="cKcv-P_t8UrdQhBmYc3C-47">
          <mxGeometry x="29" width="101" height="30" as="geometry">
            <mxRectangle width="101" height="30" as="alternateBounds" />
          </mxGeometry>
        </mxCell>
        <mxCell id="cKcv-P_t8UrdQhBmYc3C-115" style="edgeStyle=orthogonalEdgeStyle;rounded=0;orthogonalLoop=1;jettySize=auto;html=1;entryX=0.5;entryY=0;entryDx=0;entryDy=0;" edge="1" parent="1">
          <mxGeometry relative="1" as="geometry">
            <mxPoint x="234" y="790" as="sourcePoint" />
            <mxPoint x="82" y="952" as="targetPoint" />
            <Array as="points">
              <mxPoint x="234" y="881" />
              <mxPoint x="82" y="881" />
            </Array>
          </mxGeometry>
        </mxCell>
        <mxCell id="cKcv-P_t8UrdQhBmYc3C-116" style="edgeStyle=orthogonalEdgeStyle;rounded=0;orthogonalLoop=1;jettySize=auto;html=1;entryX=0.5;entryY=0;entryDx=0;entryDy=0;" edge="1" parent="1" source="cKcv-P_t8UrdQhBmYc3C-113" target="cKcv-P_t8UrdQhBmYc3C-35">
          <mxGeometry relative="1" as="geometry">
            <mxPoint x="24.5" y="770" as="sourcePoint" />
            <mxPoint x="-277.5" y="941" as="targetPoint" />
            <Array as="points">
              <mxPoint x="234" y="881" />
              <mxPoint x="-68" y="881" />
            </Array>
          </mxGeometry>
        </mxCell>
        <mxCell id="cKcv-P_t8UrdQhBmYc3C-118" style="edgeStyle=orthogonalEdgeStyle;rounded=0;orthogonalLoop=1;jettySize=auto;html=1;entryX=0.5;entryY=0;entryDx=0;entryDy=0;" edge="1" parent="1" source="cKcv-P_t8UrdQhBmYc3C-113" target="cKcv-P_t8UrdQhBmYc3C-109">
          <mxGeometry relative="1" as="geometry">
            <Array as="points">
              <mxPoint x="234" y="880" />
              <mxPoint x="392" y="880" />
            </Array>
          </mxGeometry>
        </mxCell>
        <mxCell id="cKcv-P_t8UrdQhBmYc3C-169" style="edgeStyle=orthogonalEdgeStyle;rounded=0;orthogonalLoop=1;jettySize=auto;html=1;entryX=0.5;entryY=0;entryDx=0;entryDy=0;" edge="1" parent="1" source="cKcv-P_t8UrdQhBmYc3C-113" target="cKcv-P_t8UrdQhBmYc3C-163">
          <mxGeometry relative="1" as="geometry">
            <Array as="points">
              <mxPoint x="234" y="880" />
              <mxPoint x="700" y="880" />
            </Array>
          </mxGeometry>
        </mxCell>
        <mxCell id="cKcv-P_t8UrdQhBmYc3C-170" style="edgeStyle=orthogonalEdgeStyle;rounded=0;orthogonalLoop=1;jettySize=auto;html=1;" edge="1" parent="1" source="cKcv-P_t8UrdQhBmYc3C-113" target="cKcv-P_t8UrdQhBmYc3C-166">
          <mxGeometry relative="1" as="geometry">
            <Array as="points">
              <mxPoint x="234" y="880" />
              <mxPoint x="830" y="880" />
            </Array>
          </mxGeometry>
        </mxCell>
        <mxCell id="cKcv-P_t8UrdQhBmYc3C-113" value="" style="shape=waypoint;sketch=0;fillStyle=solid;size=6;pointerEvents=1;points=[];fillColor=none;resizable=0;rotatable=0;perimeter=centerPerimeter;snapToPoint=1;" vertex="1" parent="1">
          <mxGeometry x="224" y="779" width="20" height="20" as="geometry" />
        </mxCell>
        <mxCell id="cKcv-P_t8UrdQhBmYc3C-117" style="edgeStyle=orthogonalEdgeStyle;rounded=0;orthogonalLoop=1;jettySize=auto;html=1;" edge="1" parent="1">
          <mxGeometry relative="1" as="geometry">
            <mxPoint x="234" y="790" as="sourcePoint" />
            <mxPoint x="550" y="950" as="targetPoint" />
            <Array as="points">
              <mxPoint x="234" y="880" />
              <mxPoint x="550" y="880" />
            </Array>
          </mxGeometry>
        </mxCell>
        <mxCell id="cKcv-P_t8UrdQhBmYc3C-119" value="" style="html=1;labelBackgroundColor=#ffffff;startArrow=none;startFill=0;startSize=6;endArrow=classic;endFill=1;endSize=6;jettySize=auto;orthogonalLoop=1;strokeWidth=1;dashed=1;fontSize=14;rounded=0;exitX=0.5;exitY=1;exitDx=0;exitDy=0;" edge="1" parent="1">
          <mxGeometry width="60" height="60" relative="1" as="geometry">
            <mxPoint x="-68.5" y="981" as="sourcePoint" />
            <mxPoint x="-68.5" y="1051" as="targetPoint" />
            <Array as="points">
              <mxPoint x="-68.5" y="1011" />
            </Array>
          </mxGeometry>
        </mxCell>
        <mxCell id="cKcv-P_t8UrdQhBmYc3C-121" value="" style="html=1;labelBackgroundColor=#ffffff;startArrow=none;startFill=0;startSize=6;endArrow=classic;endFill=1;endSize=6;jettySize=auto;orthogonalLoop=1;strokeWidth=1;dashed=1;fontSize=14;rounded=0;exitX=0.5;exitY=1;exitDx=0;exitDy=0;" edge="1" parent="1">
          <mxGeometry width="60" height="60" relative="1" as="geometry">
            <mxPoint x="81.5" y="981" as="sourcePoint" />
            <mxPoint x="81.5" y="1051" as="targetPoint" />
            <Array as="points">
              <mxPoint x="81.5" y="1011" />
            </Array>
          </mxGeometry>
        </mxCell>
        <mxCell id="cKcv-P_t8UrdQhBmYc3C-122" value="" style="html=1;labelBackgroundColor=#ffffff;startArrow=none;startFill=0;startSize=6;endArrow=classic;endFill=1;endSize=6;jettySize=auto;orthogonalLoop=1;strokeWidth=1;dashed=1;fontSize=14;rounded=0;exitX=0.5;exitY=1;exitDx=0;exitDy=0;" edge="1" parent="1">
          <mxGeometry width="60" height="60" relative="1" as="geometry">
            <mxPoint x="233.5" y="981" as="sourcePoint" />
            <mxPoint x="233.5" y="1051" as="targetPoint" />
            <Array as="points">
              <mxPoint x="233.5" y="1011" />
            </Array>
          </mxGeometry>
        </mxCell>
        <mxCell id="cKcv-P_t8UrdQhBmYc3C-123" value="" style="html=1;labelBackgroundColor=#ffffff;startArrow=none;startFill=0;startSize=6;endArrow=classic;endFill=1;endSize=6;jettySize=auto;orthogonalLoop=1;strokeWidth=1;dashed=1;fontSize=14;rounded=0;exitX=0.5;exitY=1;exitDx=0;exitDy=0;" edge="1" parent="1">
          <mxGeometry width="60" height="60" relative="1" as="geometry">
            <mxPoint x="391.5" y="981" as="sourcePoint" />
            <mxPoint x="391.5" y="1051" as="targetPoint" />
            <Array as="points">
              <mxPoint x="391.5" y="1011" />
            </Array>
          </mxGeometry>
        </mxCell>
        <mxCell id="cKcv-P_t8UrdQhBmYc3C-124" value="" style="html=1;labelBackgroundColor=#ffffff;startArrow=none;startFill=0;startSize=6;endArrow=classic;endFill=1;endSize=6;jettySize=auto;orthogonalLoop=1;strokeWidth=1;dashed=1;fontSize=14;rounded=0;exitX=0.5;exitY=1;exitDx=0;exitDy=0;" edge="1" parent="1">
          <mxGeometry width="60" height="60" relative="1" as="geometry">
            <mxPoint x="550" y="981" as="sourcePoint" />
            <mxPoint x="550" y="1051" as="targetPoint" />
            <Array as="points">
              <mxPoint x="550" y="1011" />
            </Array>
          </mxGeometry>
        </mxCell>
        <mxCell id="cKcv-P_t8UrdQhBmYc3C-125" value="[columns]" style="text;html=1;align=center;verticalAlign=middle;resizable=0;points=[];autosize=1;strokeColor=none;fillColor=none;" vertex="1" parent="1">
          <mxGeometry x="-105" y="1048" width="70" height="30" as="geometry" />
        </mxCell>
        <mxCell id="cKcv-P_t8UrdQhBmYc3C-126" value="[{column:value}]" style="text;html=1;align=center;verticalAlign=middle;resizable=0;points=[];autosize=1;strokeColor=none;fillColor=none;" vertex="1" parent="1">
          <mxGeometry x="25" y="1048" width="110" height="30" as="geometry" />
        </mxCell>
        <mxCell id="cKcv-P_t8UrdQhBmYc3C-127" value="String" style="text;html=1;align=center;verticalAlign=middle;resizable=0;points=[];autosize=1;strokeColor=none;fillColor=none;" vertex="1" parent="1">
          <mxGeometry x="208.5" y="1048" width="50" height="30" as="geometry" />
        </mxCell>
        <mxCell id="cKcv-P_t8UrdQhBmYc3C-128" value="Automatically done,&lt;br&gt;prepares for print" style="text;html=1;align=center;verticalAlign=middle;resizable=0;points=[];autosize=1;strokeColor=none;fillColor=none;" vertex="1" parent="1">
          <mxGeometry x="325" y="1043" width="130" height="40" as="geometry" />
        </mxCell>
        <mxCell id="cKcv-P_t8UrdQhBmYc3C-130" value="Pretty prints&lt;br&gt;table according&lt;br&gt;to parameters" style="text;html=1;align=center;verticalAlign=middle;resizable=0;points=[];autosize=1;strokeColor=none;fillColor=none;" vertex="1" parent="1">
          <mxGeometry x="502" y="1050" width="100" height="60" as="geometry" />
        </mxCell>
        <mxCell id="cKcv-P_t8UrdQhBmYc3C-131" value="" style="endArrow=none;dashed=1;html=1;dashPattern=1 3;strokeWidth=2;rounded=0;entryX=0;entryY=0.5;entryDx=0;entryDy=0;exitX=1;exitY=0.5;exitDx=0;exitDy=0;" edge="1" parent="1" source="cKcv-P_t8UrdQhBmYc3C-109" target="cKcv-P_t8UrdQhBmYc3C-110">
          <mxGeometry width="50" height="50" relative="1" as="geometry">
            <mxPoint x="180" y="930" as="sourcePoint" />
            <mxPoint x="230" y="880" as="targetPoint" />
          </mxGeometry>
        </mxCell>
        <mxCell id="cKcv-P_t8UrdQhBmYc3C-150" style="edgeStyle=orthogonalEdgeStyle;rounded=0;orthogonalLoop=1;jettySize=auto;html=1;entryX=0;entryY=0.5;entryDx=0;entryDy=0;" edge="1" parent="1" source="cKcv-P_t8UrdQhBmYc3C-133" target="cKcv-P_t8UrdQhBmYc3C-11">
          <mxGeometry relative="1" as="geometry">
            <mxPoint x="-100" y="725" as="targetPoint" />
            <Array as="points">
              <mxPoint x="-130" y="635" />
              <mxPoint x="-130" y="275" />
            </Array>
          </mxGeometry>
        </mxCell>
        <mxCell id="cKcv-P_t8UrdQhBmYc3C-133" value="Insert(...)" style="rounded=1;whiteSpace=wrap;html=1;" vertex="1" parent="1">
          <mxGeometry x="-40" y="620" width="80" height="30" as="geometry" />
        </mxCell>
        <mxCell id="cKcv-P_t8UrdQhBmYc3C-147" value="" style="edgeStyle=orthogonalEdgeStyle;rounded=0;orthogonalLoop=1;jettySize=auto;html=1;entryX=0;entryY=0.5;entryDx=0;entryDy=0;" edge="1" parent="1" source="cKcv-P_t8UrdQhBmYc3C-134" target="cKcv-P_t8UrdQhBmYc3C-11">
          <mxGeometry relative="1" as="geometry">
            <mxPoint x="-180" y="710" as="targetPoint" />
            <Array as="points">
              <mxPoint x="-130" y="695" />
              <mxPoint x="-130" y="275" />
            </Array>
          </mxGeometry>
        </mxCell>
        <mxCell id="cKcv-P_t8UrdQhBmYc3C-134" value="Update(...)" style="rounded=1;whiteSpace=wrap;html=1;" vertex="1" parent="1">
          <mxGeometry x="-40" y="680" width="80" height="30" as="geometry" />
        </mxCell>
        <mxCell id="cKcv-P_t8UrdQhBmYc3C-148" value="" style="edgeStyle=orthogonalEdgeStyle;rounded=0;orthogonalLoop=1;jettySize=auto;html=1;entryX=0;entryY=0.5;entryDx=0;entryDy=0;" edge="1" parent="1" source="cKcv-P_t8UrdQhBmYc3C-135" target="cKcv-P_t8UrdQhBmYc3C-11">
          <mxGeometry relative="1" as="geometry">
            <mxPoint x="-100" y="725" as="targetPoint" />
            <Array as="points">
              <mxPoint x="-130" y="755" />
              <mxPoint x="-130" y="275" />
            </Array>
          </mxGeometry>
        </mxCell>
        <mxCell id="cKcv-P_t8UrdQhBmYc3C-135" value="Delete(...)" style="rounded=1;whiteSpace=wrap;html=1;" vertex="1" parent="1">
          <mxGeometry x="-40" y="740" width="80" height="30" as="geometry" />
        </mxCell>
        <mxCell id="cKcv-P_t8UrdQhBmYc3C-149" style="edgeStyle=orthogonalEdgeStyle;rounded=0;orthogonalLoop=1;jettySize=auto;html=1;entryX=0;entryY=0.5;entryDx=0;entryDy=0;" edge="1" parent="1" source="cKcv-P_t8UrdQhBmYc3C-136" target="cKcv-P_t8UrdQhBmYc3C-11">
          <mxGeometry relative="1" as="geometry">
            <mxPoint x="-100" y="725" as="targetPoint" />
            <Array as="points">
              <mxPoint x="-130" y="814" />
              <mxPoint x="-130" y="275" />
            </Array>
          </mxGeometry>
        </mxCell>
        <mxCell id="cKcv-P_t8UrdQhBmYc3C-136" value="Commit(...)" style="rounded=1;whiteSpace=wrap;html=1;" vertex="1" parent="1">
          <mxGeometry x="-40" y="799" width="80" height="30" as="geometry" />
        </mxCell>
        <mxCell id="cKcv-P_t8UrdQhBmYc3C-142" style="edgeStyle=orthogonalEdgeStyle;rounded=0;orthogonalLoop=1;jettySize=auto;html=1;entryX=1;entryY=0.5;entryDx=0;entryDy=0;" edge="1" parent="1" source="cKcv-P_t8UrdQhBmYc3C-141" target="cKcv-P_t8UrdQhBmYc3C-133">
          <mxGeometry relative="1" as="geometry" />
        </mxCell>
        <mxCell id="cKcv-P_t8UrdQhBmYc3C-143" style="edgeStyle=orthogonalEdgeStyle;rounded=0;orthogonalLoop=1;jettySize=auto;html=1;entryX=1;entryY=0.5;entryDx=0;entryDy=0;" edge="1" parent="1" source="cKcv-P_t8UrdQhBmYc3C-141" target="cKcv-P_t8UrdQhBmYc3C-134">
          <mxGeometry relative="1" as="geometry" />
        </mxCell>
        <mxCell id="cKcv-P_t8UrdQhBmYc3C-144" style="edgeStyle=orthogonalEdgeStyle;rounded=0;orthogonalLoop=1;jettySize=auto;html=1;entryX=1;entryY=0.5;entryDx=0;entryDy=0;" edge="1" parent="1" source="cKcv-P_t8UrdQhBmYc3C-141" target="cKcv-P_t8UrdQhBmYc3C-135">
          <mxGeometry relative="1" as="geometry" />
        </mxCell>
        <mxCell id="cKcv-P_t8UrdQhBmYc3C-145" style="edgeStyle=orthogonalEdgeStyle;rounded=0;orthogonalLoop=1;jettySize=auto;html=1;entryX=1;entryY=0.5;entryDx=0;entryDy=0;" edge="1" parent="1" source="cKcv-P_t8UrdQhBmYc3C-141" target="cKcv-P_t8UrdQhBmYc3C-136">
          <mxGeometry relative="1" as="geometry" />
        </mxCell>
        <mxCell id="cKcv-P_t8UrdQhBmYc3C-141" value="" style="shape=waypoint;sketch=0;fillStyle=solid;size=6;pointerEvents=1;points=[];fillColor=none;resizable=0;rotatable=0;perimeter=centerPerimeter;snapToPoint=1;" vertex="1" parent="1">
          <mxGeometry x="150" y="710" width="20" height="20" as="geometry" />
        </mxCell>
        <mxCell id="cKcv-P_t8UrdQhBmYc3C-154" value="" style="group" vertex="1" connectable="0" parent="1">
          <mxGeometry x="-250" y="80" width="320" height="205" as="geometry" />
        </mxCell>
        <mxCell id="cKcv-P_t8UrdQhBmYc3C-97" value="" style="group" vertex="1" connectable="0" parent="cKcv-P_t8UrdQhBmYc3C-154">
          <mxGeometry width="170" height="110" as="geometry" />
        </mxCell>
        <mxCell id="cKcv-P_t8UrdQhBmYc3C-78" value="" style="sketch=0;pointerEvents=1;shadow=0;dashed=0;html=1;strokeColor=none;fillColor=#505050;labelPosition=center;verticalLabelPosition=bottom;verticalAlign=top;outlineConnect=0;align=center;shape=mxgraph.office.concepts.clipboard;" vertex="1" parent="cKcv-P_t8UrdQhBmYc3C-97">
          <mxGeometry width="80" height="110" as="geometry" />
        </mxCell>
        <mxCell id="cKcv-P_t8UrdQhBmYc3C-79" value="Report" style="text;html=1;align=center;verticalAlign=middle;resizable=0;points=[];autosize=1;strokeColor=none;fillColor=none;" vertex="1" parent="cKcv-P_t8UrdQhBmYc3C-97">
          <mxGeometry x="10" y="40" width="60" height="30" as="geometry" />
        </mxCell>
        <mxCell id="cKcv-P_t8UrdQhBmYc3C-99" value="" style="group" vertex="1" connectable="0" parent="cKcv-P_t8UrdQhBmYc3C-154">
          <mxGeometry x="80" y="20" width="240" height="78.25" as="geometry" />
        </mxCell>
        <mxCell id="cKcv-P_t8UrdQhBmYc3C-100" value="" style="shape=curlyBracket;whiteSpace=wrap;html=1;rounded=1;labelPosition=left;verticalLabelPosition=middle;align=right;verticalAlign=middle;" vertex="1" parent="cKcv-P_t8UrdQhBmYc3C-99">
          <mxGeometry x="11.771117166212534" y="5.369999999999997" width="26.158038147138964" height="67.5" as="geometry" />
        </mxCell>
        <mxCell id="cKcv-P_t8UrdQhBmYc3C-101" value="&lt;ul&gt;&lt;li&gt;error: Error&lt;/li&gt;&lt;li&gt;message: string&lt;/li&gt;&lt;li&gt;(Rows inserted, value updated, row deleted, committed,...)&lt;/li&gt;&lt;/ul&gt;" style="text;strokeColor=none;fillColor=none;html=1;whiteSpace=wrap;verticalAlign=middle;overflow=hidden;" vertex="1" parent="cKcv-P_t8UrdQhBmYc3C-99">
          <mxGeometry width="240" height="78.25" as="geometry" />
        </mxCell>
        <mxCell id="cKcv-P_t8UrdQhBmYc3C-102" value="&lt;font color=&quot;#ffffff&quot;&gt;Has error&lt;/font&gt;" style="whiteSpace=wrap;html=1;verticalAlign=top;fillColor=#505050;strokeColor=none;sketch=0;pointerEvents=1;shadow=0;dashed=0;" vertex="1" parent="cKcv-P_t8UrdQhBmYc3C-154">
          <mxGeometry x="2.5" y="180" width="75" height="25" as="geometry" />
        </mxCell>
        <mxCell id="cKcv-P_t8UrdQhBmYc3C-103" value="" style="edgeStyle=orthogonalEdgeStyle;rounded=0;orthogonalLoop=1;jettySize=auto;html=1;" edge="1" parent="cKcv-P_t8UrdQhBmYc3C-154" source="cKcv-P_t8UrdQhBmYc3C-78" target="cKcv-P_t8UrdQhBmYc3C-102">
          <mxGeometry relative="1" as="geometry" />
        </mxCell>
        <mxCell id="cKcv-P_t8UrdQhBmYc3C-155" value="[tablenames]" style="ellipse;whiteSpace=wrap;html=1;" vertex="1" parent="1">
          <mxGeometry x="414.5" y="360" width="85.5" height="40" as="geometry" />
        </mxCell>
        <mxCell id="cKcv-P_t8UrdQhBmYc3C-157" value="" style="html=1;labelBackgroundColor=#ffffff;startArrow=none;startFill=0;startSize=6;endArrow=classic;endFill=1;endSize=6;jettySize=auto;orthogonalLoop=1;strokeWidth=1;dashed=1;fontSize=14;rounded=0;exitX=0;exitY=0.5;exitDx=0;exitDy=0;entryX=1;entryY=0.5;entryDx=0;entryDy=0;" edge="1" parent="1" source="cKcv-P_t8UrdQhBmYc3C-13" target="cKcv-P_t8UrdQhBmYc3C-10">
          <mxGeometry width="60" height="60" relative="1" as="geometry">
            <mxPoint x="650" y="285" as="sourcePoint" />
            <mxPoint x="629" y="100" as="targetPoint" />
            <Array as="points" />
          </mxGeometry>
        </mxCell>
        <mxCell id="cKcv-P_t8UrdQhBmYc3C-159" value="" style="html=1;labelBackgroundColor=#ffffff;startArrow=none;startFill=0;startSize=6;endArrow=classic;endFill=1;endSize=6;jettySize=auto;orthogonalLoop=1;strokeWidth=1;dashed=1;fontSize=14;rounded=0;exitX=0.5;exitY=1;exitDx=0;exitDy=0;" edge="1" parent="1" source="cKcv-P_t8UrdQhBmYc3C-13">
          <mxGeometry width="60" height="60" relative="1" as="geometry">
            <mxPoint x="570" y="285" as="sourcePoint" />
            <mxPoint x="600" y="360" as="targetPoint" />
            <Array as="points" />
          </mxGeometry>
        </mxCell>
        <mxCell id="cKcv-P_t8UrdQhBmYc3C-160" value="&lt;span style=&quot;color: rgb(0, 0, 0); font-family: Helvetica; font-size: 12px; font-style: normal; font-variant-ligatures: normal; font-variant-caps: normal; letter-spacing: normal; orphans: 2; text-align: center; text-indent: 0px; text-transform: none; widows: 2; word-spacing: 0px; -webkit-text-stroke-width: 0px; white-space: normal; background-color: rgb(251, 251, 251); text-decoration-thickness: initial; text-decoration-style: initial; text-decoration-color: initial; float: none; display: inline !important;&quot;&gt;&lt;b&gt;&quot;Found N tables, N views, and&amp;nbsp;&lt;/b&gt;&lt;/span&gt;&lt;b style=&quot;text-align: center;&quot;&gt;N triggers&quot;&lt;/b&gt;" style="text;whiteSpace=wrap;html=1;" vertex="1" parent="1">
          <mxGeometry x="560" y="365" width="80" height="70" as="geometry" />
        </mxCell>
        <mxCell id="cKcv-P_t8UrdQhBmYc3C-161" value="&lt;b&gt;SQLBuilder()&lt;/b&gt;" style="triangle;whiteSpace=wrap;html=1;direction=east;rotation=-90;" vertex="1" parent="1">
          <mxGeometry x="-190" y="470" width="120" height="80" as="geometry" />
        </mxCell>
        <mxCell id="cKcv-P_t8UrdQhBmYc3C-163" value="get_sql" style="rounded=1;whiteSpace=wrap;html=1;" vertex="1" parent="1">
          <mxGeometry x="660" y="951" width="80" height="30" as="geometry" />
        </mxCell>
        <mxCell id="cKcv-P_t8UrdQhBmYc3C-164" value="" style="html=1;labelBackgroundColor=#ffffff;startArrow=none;startFill=0;startSize=6;endArrow=classic;endFill=1;endSize=6;jettySize=auto;orthogonalLoop=1;strokeWidth=1;dashed=1;fontSize=14;rounded=0;exitX=0.5;exitY=1;exitDx=0;exitDy=0;" edge="1" parent="1">
          <mxGeometry width="60" height="60" relative="1" as="geometry">
            <mxPoint x="701.5" y="981" as="sourcePoint" />
            <mxPoint x="701.5" y="1051" as="targetPoint" />
            <Array as="points">
              <mxPoint x="701.5" y="1011" />
            </Array>
          </mxGeometry>
        </mxCell>
        <mxCell id="cKcv-P_t8UrdQhBmYc3C-165" value="CSV" style="text;html=1;align=center;verticalAlign=middle;resizable=0;points=[];autosize=1;strokeColor=none;fillColor=none;" vertex="1" parent="1">
          <mxGeometry x="675" y="1048" width="50" height="30" as="geometry" />
        </mxCell>
        <mxCell id="cKcv-P_t8UrdQhBmYc3C-166" value="get_sql" style="rounded=1;whiteSpace=wrap;html=1;" vertex="1" parent="1">
          <mxGeometry x="790" y="951" width="80" height="30" as="geometry" />
        </mxCell>
        <mxCell id="cKcv-P_t8UrdQhBmYc3C-167" value="" style="html=1;labelBackgroundColor=#ffffff;startArrow=none;startFill=0;startSize=6;endArrow=classic;endFill=1;endSize=6;jettySize=auto;orthogonalLoop=1;strokeWidth=1;dashed=1;fontSize=14;rounded=0;exitX=0.5;exitY=1;exitDx=0;exitDy=0;" edge="1" parent="1">
          <mxGeometry width="60" height="60" relative="1" as="geometry">
            <mxPoint x="831.5" y="981" as="sourcePoint" />
            <mxPoint x="831.5" y="1051" as="targetPoint" />
            <Array as="points">
              <mxPoint x="831.5" y="1011" />
            </Array>
          </mxGeometry>
        </mxCell>
        <mxCell id="cKcv-P_t8UrdQhBmYc3C-168" value="SQL Script" style="text;html=1;align=center;verticalAlign=middle;resizable=0;points=[];autosize=1;strokeColor=none;fillColor=none;" vertex="1" parent="1">
          <mxGeometry x="790" y="1048" width="80" height="30" as="geometry" />
        </mxCell>
        <mxCell id="cKcv-P_t8UrdQhBmYc3C-178" style="edgeStyle=orthogonalEdgeStyle;rounded=0;orthogonalLoop=1;jettySize=auto;html=1;entryX=0;entryY=0.5;entryDx=0;entryDy=0;" edge="1" parent="1" source="cKcv-P_t8UrdQhBmYc3C-174" target="cKcv-P_t8UrdQhBmYc3C-175">
          <mxGeometry relative="1" as="geometry">
            <Array as="points">
              <mxPoint x="790" y="713" />
            </Array>
          </mxGeometry>
        </mxCell>
        <mxCell id="cKcv-P_t8UrdQhBmYc3C-174" value="" style="html=1;verticalLabelPosition=bottom;align=center;labelBackgroundColor=#ffffff;verticalAlign=top;strokeWidth=2;strokeColor=#0080F0;shadow=0;dashed=0;shape=mxgraph.ios7.icons.tools;pointerEvents=1" vertex="1" parent="1">
          <mxGeometry x="750" y="510" width="60" height="59" as="geometry" />
        </mxCell>
        <mxCell id="cKcv-P_t8UrdQhBmYc3C-175" value="Query()&lt;div&gt;from&lt;/div&gt;&lt;div&gt;into&lt;/div&gt;&lt;div&gt;select&lt;/div&gt;&lt;div&gt;insert&lt;/div&gt;&lt;div&gt;update&lt;/div&gt;&lt;div&gt;delete&lt;/div&gt;" style="rounded=1;whiteSpace=wrap;html=1;" vertex="1" parent="1">
          <mxGeometry x="900" y="648" width="70" height="131" as="geometry" />
        </mxCell>
        <mxCell id="cKcv-P_t8UrdQhBmYc3C-176" value="USE BY BOTH DB AND TABLE, AND BY ITSELF" style="shape=note;strokeWidth=2;fontSize=14;size=20;whiteSpace=wrap;html=1;fillColor=#fff2cc;strokeColor=#d6b656;fontColor=#666600;" vertex="1" parent="1">
          <mxGeometry x="950" y="499.5" width="110.00000000000001" height="80" as="geometry" />
        </mxCell>
        <mxCell id="cKcv-P_t8UrdQhBmYc3C-177" style="edgeStyle=orthogonalEdgeStyle;rounded=0;orthogonalLoop=1;jettySize=auto;html=1;entryX=1.05;entryY=0.508;entryDx=0;entryDy=0;entryPerimeter=0;" edge="1" parent="1" source="cKcv-P_t8UrdQhBmYc3C-176" target="cKcv-P_t8UrdQhBmYc3C-174">
          <mxGeometry relative="1" as="geometry" />
        </mxCell>
      </root>
    </mxGraphModel>
  </diagram>
</mxfile>
